<?xml version="1.0" encoding="UTF-8" standalone="no"?>
<svg
   width="15"
   height="15"
   viewBox="0 0 15 15"
   fill="none"
   version="1.1"
   id="svg1"
   sodipodi:docname="redo.svg"
   inkscape:version="1.4.2 (ebf0e940d0, 2025-05-08)"
   xmlns:inkscape="http://www.inkscape.org/namespaces/inkscape"
   xmlns:sodipodi="http://sodipodi.sourceforge.net/DTD/sodipodi-0.dtd"
   xmlns="http://www.w3.org/2000/svg"
   xmlns:svg="http://www.w3.org/2000/svg">
  <defs
     id="defs1" />
  <sodipodi:namedview
     id="namedview1"
     pagecolor="#ffffff"
     bordercolor="#666666"
     borderopacity="1.0"
     inkscape:showpageshadow="2"
     inkscape:pageopacity="0.0"
     inkscape:pagecheckerboard="0"
     inkscape:deskcolor="#d1d1d1"
     inkscape:zoom="14.208835"
     inkscape:cx="34.87267"
     inkscape:cy="6.8619279"
     inkscape:window-width="1920"
     inkscape:window-height="1063"
     inkscape:window-x="0"
     inkscape:window-y="17"
     inkscape:window-maximized="1"
     inkscape:current-layer="svg1" />
  <path
     d="m 10.646447,2.14645 c -0.195269,0.19526 -0.195269,0.51184 0,0.7071 L 11.792887,4 H 6.4999975 c -2.4853,0 -4.5,2.01472 -4.5,4.5 0,2.4853 2.0147,4.5 4.5,4.5 h 3.9999995 c 0.27614,0 0.5,-0.2239 0.5,-0.5 0,-0.2761 -0.22386,-0.5 -0.5,-0.5 H 6.4999975 c -1.933,0 -3.5,-1.567 -3.5,-3.5 0,-1.933 1.567,-3.5 3.5,-3.5 h 5.2928895 l -1.14644,1.14645 c -0.195269,0.19526 -0.195269,0.51184 0,0.7071 0.19526,0.19527 0.511841,0.19527 0.7071,0 l 2,-2 c 0.19527,-0.19526 0.19527,-0.51184 0,-0.7071 l -2,-2 c -0.195259,-0.19527 -0.51184,-0.19527 -0.7071,0 z"
     fill="currentColor"
     fill-rule="evenodd"
     clip-rule="evenodd"
     id="path1" />
</svg>
